<svg xmlns="http://www.w3.org/2000/svg">

  
 <symbol id="corzina-icon" width="24" height="24" viewBox="0 0 24 24" fill="#8F939F" xmlns="http://www.w3.org/2000/svg">
<path d="M8 12L8 8C8 5.79086 9.79086 4 12 4V4C14.2091 4 16 5.79086 16 8L16 12" stroke="#8F939F" stroke-width="2" stroke-linecap="round"/>
<path d="M3.69435 12.6678C3.83942 10.9269 3.91196 10.0565 4.48605 9.52824C5.06013 9 5.9336 9 7.68053 9H16.3195C18.0664 9 18.9399 9 19.514 9.52824C20.088 10.0565 20.1606 10.9269 20.3057 12.6678L20.8195 18.8339C20.904 19.8474 20.9462 20.3542 20.6491 20.6771C20.352 21 19.8435 21 18.8264 21H5.1736C4.15655 21 3.64802 21 3.35092 20.6771C3.05382 20.3542 3.09605 19.8474 3.18051 18.8339L3.69435 12.6678Z" stroke="#8F939F" stroke-width="2"/>
 </symbol>

 <symbol id="favorite-icon" width="24" height="24" viewBox="0 0 24 24" fill="#8F939F" xmlns="http://www.w3.org/2000/svg">
<path d="M10.1437 6.62756C10.9303 4.66656 11.3236 3.68607 12 3.68607C12.6763 3.68607 13.0696 4.66657 13.8562 6.62757L13.8928 6.71888C14.3372 7.82675 14.5594 8.38068 15.0123 8.71737C15.4651 9.05406 16.0596 9.1073 17.2485 9.21377L17.4634 9.23302C19.4092 9.40729 20.3822 9.49442 20.5903 10.1134C20.7985 10.7324 20.076 11.3897 18.6309 12.7044L18.1487 13.1432C17.4172 13.8087 17.0514 14.1415 16.8809 14.5776C16.8491 14.659 16.8227 14.7423 16.8018 14.8271C16.6897 15.2818 16.7968 15.7645 17.0111 16.73L17.0777 17.0305C17.4714 18.8048 17.6682 19.692 17.3246 20.0747C17.1961 20.2177 17.0292 20.3206 16.8438 20.3712C16.3476 20.5066 15.6431 19.9326 14.2342 18.7845C13.309 18.0306 12.8464 17.6536 12.3153 17.5688C12.1064 17.5355 11.8935 17.5355 11.6846 17.5688C11.1535 17.6536 10.6909 18.0306 9.76577 18.7845C8.35681 19.9326 7.65234 20.5066 7.15614 20.3712C6.97072 20.3206 6.80381 20.2177 6.67538 20.0747C6.33171 19.692 6.52854 18.8048 6.92222 17.0305L6.98889 16.73C7.2031 15.7645 7.31021 15.2818 7.19815 14.8271C7.17725 14.7423 7.15081 14.659 7.11901 14.5776C6.94854 14.1415 6.58279 13.8087 5.85128 13.1432L5.369 12.7044C3.92395 11.3897 3.20143 10.7324 3.40961 10.1134C3.61779 9.49442 4.5907 9.40729 6.53651 9.23302L6.75145 9.21377C7.94036 9.1073 8.53482 9.05406 8.98767 8.71737C9.44052 8.38068 9.66272 7.82675 10.1071 6.71888L10.1437 6.62756Z" stroke="#8F939F" stroke-width="2"/>
 </symbol>

 <symbol id="login-icon" width="24" height="24" viewBox="0 0 24 24" fill="none" xmlns="http://www.w3.org/2000/svg">
<path fill-rule="evenodd" clip-rule="evenodd" d="M12.0001 4.0166C9.77715 4.0166 7.9751 5.81866 7.9751 8.0416C7.9751 10.2645 9.77715 12.0666 12.0001 12.0666C14.223 12.0666 16.0251 10.2645 16.0251 8.0416C16.0251 5.81866 14.223 4.0166 12.0001 4.0166ZM6.4751 8.0416C6.4751 4.99023 8.94872 2.5166 12.0001 2.5166C15.0515 2.5166 17.5251 4.99023 17.5251 8.0416C17.5251 11.093 15.0515 13.5666 12.0001 13.5666C8.94872 13.5666 6.4751 11.093 6.4751 8.0416Z" fill="#8F939F"/>
<path fill-rule="evenodd" clip-rule="evenodd" d="M11.9996 13.5833C10.1687 13.5831 8.3955 14.2243 6.98813 15.3954C5.58112 16.5663 4.6286 18.193 4.29593 19.993C4.29584 19.9934 4.29575 19.9939 4.29566 19.9944L3.98787 21.6998L2.51172 21.4334L2.82032 19.7236L2.82059 19.7221C3.21667 17.5768 4.35174 15.6379 6.02864 14.2425C7.70553 12.847 9.81829 12.083 11.9999 12.0833L12 12.0833C14.1842 12.0838 16.299 12.8503 17.9762 14.2494C19.6535 15.6485 20.787 17.5915 21.1793 19.7402L21.1794 19.741L21.4879 21.45L20.0117 21.7165L19.7037 20.0096C19.7036 20.0093 19.7036 20.0091 19.7035 20.0088C19.3741 18.2058 18.4229 16.5753 17.0154 15.4013C15.6077 14.2271 13.8328 13.5837 11.9997 13.5833" fill="#8F939F"/>
</symbol>








</svg>